# xmcd
#
# Track frame offsets:
#	150
#	10569
#	21555
#	32148
#	44386
#	56977
#	67358
#	78915
#	88912
#	102083
#	114809
#	125510
#	138765
#	149984
#	164926
#	175405
#	186216
#	196280
#	206436
#	220084
#	234238
#	247643
#	257298
#	266775
#	276529
#	288450
#	297669
#	305780
#	320325
#	329307
#	340311
#	347129
#
# Disc length: 4760 seconds
#
# Revision: 6488105
# Processed by: cddbd v1.5.2PL0 Copyright (c) Steve Scherf et al.
# Submitted via: EZCDAudioConverter 8.5.0.1
#
DISCID=fd129620
DTITLE=V/A - Hillbillies In Hell: Tribulations
DYEAR=2019
DGENRE=
TTITLE0=Hank Willams - The Angel Of Death
TTITLE1=Hank Williams Jr. - Endless Sleep
TTITLE2=Tex Williams - Smokey Hollow
TTITLE3=The Willis Brothers - Ax Cabin
TTITLE4=Bill Browning and The Dark Hollow Boys - Marbone Swamp
TTITLE5=Bobby Griggs - Dead Man's Cave
TTITLE6=Clyde Moody - Whispering Pines
TTITLE7=The Burton Family - I Saw The Light
TTITLE8=The Louvin Brothers - Satan's Jeweled Crown
TTITLE9=Bobby Grove - There Ain't No Grave Gonna Hold My Body Down
TTITLE10=Durwood Daily - East Dallas Dagger
TTITLE11=Tex Ritter - Dark Day In Dallas
TTITLE12=Cowboy Copas - Bury Me Face Down
TTITLE13=Sterling Blythe - You Picked Up A Stranger
TTITLE14=Tillman Franks Singers - When The World's On Fire
TTITLE15=Sunshine Boys Quartet - No Hiding Place
TTITLE16=Bill Hayes - Poor White Trash
TTITLE17=G.M. Farley and The Foggy River Boys - The Wilderness Of Sin
TTITLE18=Ernest Carter and The Hymn Trio - Ain't No Grave
TTITLE19=Ernest Tubb - Saturday Satan, Sunday Saint
TTITLE20=Rusty Dean - Sinner Beware
TTITLE21=Curtis Potter - Devil River
TTITLE22=Ray Winfree - Devil Hang Me High
TTITLE23=Johnny Collier - Mama Wears A Mini Skirt
TTITLE24=Troy Hess - Please Don't Go Topless Mother
TTITLE25=Howard Vokes - It Takes Six Men To Carry A Man To His Grave (But Only
TTITLE25=One Woman To Put Him There)
TTITLE26=Webb Foley - Thirty More Steps
TTITLE27=Bennie Hess - Walking That Last Mile
TTITLE28=Jimmie Skinner - One Dead Man Ago [Demo]
TTITLE29=Clyde Moody - Conversation With Death
TTITLE30=Marie Roberson - Shadow Path
TTITLE31=Wanda Jackson - Jesus Put A Yodel In My Soul
EXTD=
EXTT0=
EXTT1=
EXTT2=
EXTT3=
EXTT4=
EXTT5=
EXTT6=
EXTT7=
EXTT8=
EXTT9=
EXTT10=
EXTT11=
EXTT12=
EXTT13=
EXTT14=
EXTT15=
EXTT16=
EXTT17=
EXTT18=
EXTT19=
EXTT20=
EXTT21=
EXTT22=
EXTT23=
EXTT24=
EXTT25=
EXTT26=
EXTT27=
EXTT28=
EXTT29=
EXTT30=
EXTT31=
PLAYORDER=
